<?xml version="1.0" encoding="UTF-8"?>
<svg id="Layer_2" data-name="Layer 2" xmlns="http://www.w3.org/2000/svg" viewBox="0 0 723.86 202.62">
  <defs>
    <style>
      .cls-1 {
        fill: #f57e20;
      }

      .cls-2 {
        fill: #062b49;
      }
    </style>
  </defs>
  <rect class="cls-1" y="135.16" width="178.07" height="19.15"/>
  <polygon class="cls-1" points="178.07 94.3 178.07 114.01 89.64 88.04 89.09 87.88 88.53 88.04 0 113.99 0 94.28 89.07 68.17 178.07 94.3"/>
  <polygon class="cls-1" points="178.07 51.84 178.07 73.06 90.37 21.87 89.39 21.3 88.41 21.87 0 72.75 0 51.39 89.29 0 178.07 51.84"/>
  <g>
    <path class="cls-2" d="M272,51.76v44.46c0,9.31-6.15,14.87-16.45,14.87s-16.55-5.55-16.55-14.87v-44.46h-9.41v43.19c0,8.12,1.77,13.36,5.84,17.43,4.64,4.55,11.59,6.92,20.11,6.92s15.35-2.37,20.02-6.92c4.05-4.07,5.84-9.31,5.84-17.43v-43.19h-9.41Z"/>
    <path class="cls-2" d="M331.71,73.94c-2.68-3.35-7.33-5.24-12.98-5.24-6.54,0-10.39,1.68-15.16,6.73v-5.44h-8.72v47.84h9.12v-29.02c0-7.42,4.74-12,12.57-12,6.25,0,9.22,3.18,9.22,9.72v31.29h9.1v-31.99c0-5.56-.89-8.93-3.16-11.9Z"/>
    <path class="cls-2" d="M371.39,89.69l-11.09-2.87c-3.88-.98-5.56-2.56-5.56-4.96,0-3.35,3.66-5.63,9.12-5.63,6.34,0,9.6,2.47,10.89,8.4h8.72c-.41-4.45-1.29-7.04-3.38-9.6-3.35-4.07-9-6.35-15.85-6.35-10.8,0-18.41,5.84-18.41,14.08,0,3.16,1.39,6.32,3.57,8.21,1.96,1.77,5.05,3.16,10.1,4.45l9.51,2.37c5.56,1.51,7.61,3.18,7.61,6.34,0,4.45-4.24,7.33-10.8,7.33-7.61,0-12.38-3.76-12.86-10.1h-9.03c.98,11.4,8.72,17.74,21.69,17.74,12.19,0,19.92-5.94,19.92-15.35,0-7.33-4.17-11.49-14.18-14.08Z"/>
    <path class="cls-2" d="M431.7,74.25c-2.87-3.57-7.64-5.56-13.48-5.56s-9.6,1.58-14.27,5.65v-22.58h-9.12v66.06h9.12v-28.23c0-8.02,4.55-12.79,12.47-12.79,3.18,0,5.75,1.01,7.35,2.78,1.48,1.58,1.96,3.66,1.96,7.73v30.5h9.12v-31.99c0-5.46-.89-8.81-3.16-11.59Z"/>
    <path class="cls-2" d="M467.69,111.48c-8.24,0-13.19-5.53-13.86-15.35h34.86c-.1-5.75-.69-9.6-1.89-13.17-3.16-9.22-10.1-14.27-19.61-14.27-13.36,0-22.48,10.2-22.48,25.16s9.31,25.26,22.77,25.26c10.61,0,18.24-5.94,20.52-15.95h-8.72c-2.18,5.65-5.94,8.31-11.59,8.31ZM467.19,75.92c7.23,0,11.59,4.86,12,13.58h-25.26c.48-8.02,5.84-13.58,13.26-13.58Z"/>
    <path class="cls-2" d="M498.55,51.76v66.06h9.12V51.76h-9.12Z"/>
    <path class="cls-2" d="M539.21,77.22v-7.23h-8.62v-15.16h-9.12v15.16h-6.44v7.23h6.44v30.03c0,7.93,3.28,11.59,10.1,11.59,2.18,0,3.69-.22,7.64-1.1v-7.42c-2.47.98-3.76,1.29-5.05,1.29-2.27,0-3.57-1.6-3.57-4.36v-30.03h8.62Z"/>
    <path class="cls-2" d="M566.07,111.48c-8.21,0-13.17-5.53-13.86-15.35h34.86c-.1-5.75-.69-9.6-1.87-13.17-3.18-9.22-10.1-14.27-19.63-14.27-13.36,0-22.48,10.2-22.48,25.16s9.31,25.26,22.79,25.26c10.58,0,18.22-5.94,20.5-15.95h-8.72c-2.18,5.65-5.94,8.31-11.59,8.31ZM565.57,75.92c7.23,0,11.59,4.86,12,13.58h-25.26c.5-8.02,5.84-13.58,13.26-13.58Z"/>
    <path class="cls-2" d="M618.03,68.69c-2.87,0-6.34,1.48-8.52,3.76-1.29,1.2-2.08,2.27-3.97,5.05v-7.52h-8.72v47.84h9.12v-25.16c0-8.5,5.65-15.06,12.98-15.06,1.29,0,2.27.12,4.17.5v-8.21c-1.58-.79-3.28-1.2-5.05-1.2Z"/>
    <path class="cls-2" d="M650.38,111.48c-8.21,0-13.17-5.53-13.86-15.35h34.89c-.12-5.75-.69-9.6-1.89-13.17-3.16-9.22-10.1-14.27-19.61-14.27-13.38,0-22.48,10.2-22.48,25.16s9.29,25.26,22.77,25.26c10.61,0,18.22-5.94,20.52-15.95h-8.72c-2.18,5.65-5.96,8.31-11.61,8.31ZM649.9,75.92c7.23,0,11.59,4.86,11.97,13.58h-25.26c.5-8.02,5.84-13.58,13.29-13.58Z"/>
    <path class="cls-2" d="M714.74,51.76v23.37c-4.45-4.45-9-6.44-15.16-6.44-12.67,0-20.81,9.72-20.81,24.97s8.02,25.45,20.81,25.45c6.06,0,10.61-1.89,15.16-6.44v5.15h9.12V51.76h-9.12ZM701.57,111.48c-8.62,0-13.58-6.32-13.58-17.62s4.96-17.53,13.58-17.53,13.67,6.35,13.67,17.81-4.96,17.34-13.67,17.34Z"/>
    <path class="cls-2" d="M270.99,140.01c-4.36-3.47-9.41-4.76-18.22-4.76h-23.18v66.08h9.41v-26.84h14.46c9,0,13.67-1.29,17.93-5.05,4.05-3.57,6.13-8.33,6.13-14.37,0-6.34-2.37-11.68-6.54-15.06ZM264.77,163.69c-2.39,2.18-5.55,3.06-10.61,3.06h-15.16v-23.27h15.16c5.05,0,8.21.89,10.61,3.06,2.37,2.08,3.66,5.15,3.66,8.52s-1.29,6.54-3.66,8.62Z"/>
    <path class="cls-2" d="M325.61,194.79c-2.08,0-2.56-.79-2.56-4.55v-22.51c0-9.89-6.75-15.54-18.63-15.54-6.75,0-12.5,1.99-15.56,5.44-2.37,2.68-3.47,6.06-3.85,11.71h8.52c.19-3.47.38-4.57,1.08-5.84,1.29-2.59,4.96-4.07,9.63-4.07,6.42,0,10.49,2.87,10.49,7.52,0,2.97-1.2,3.88-6.94,4.96l-10.58,2.08c-9.72,1.99-14.46,6.75-14.46,14.46,0,8.43,6.35,14.17,15.64,14.17,6.44,0,11.71-2.18,16.54-7.04.79,4.55,2.78,6.44,7.14,6.44,1.89,0,3.76-.19,5.94-.69v-7.04c-1.08.41-1.58.5-2.37.5ZM314.9,182.92c0,6.82-6.32,12.47-14.05,12.47-5.36,0-8.93-2.97-8.93-7.33,0-3.78,2.49-6.06,8.05-7.33l9.31-2.2c2.37-.57,3.95-1.08,5.63-1.77v6.15Z"/>
    <path class="cls-2" d="M367.2,152.29c-4.24-.05-8.74-.1-9.75-.1-2.87,0-6.34,1.48-8.52,3.76-1.29,1.2-2.08,2.27-3.95,5.05v-7.52h-8.72v47.84h9.1v-25.16c0-8.52,5.65-15.06,12.98-15.06h16.38v-8.76c-1.2,0-4.26-.02-7.52-.05Z"/>
    <path class="cls-2" d="M384.92,160.72v-7.23h-8.62v-15.16h-9.1v15.16h-6.44v7.23h6.44v30c0,7.93,3.26,11.59,10.1,11.59,2.18,0,3.66-.19,7.61-1.08v-7.42c-2.47.98-3.76,1.27-5.05,1.27-2.27,0-3.57-1.58-3.57-4.36v-30h8.62Z"/>
    <path class="cls-2" d="M429.52,157.44c-2.68-3.35-7.35-5.24-12.98-5.24-6.54,0-10.42,1.68-15.16,6.73v-5.44h-8.72v47.84h9.1v-29.02c0-7.45,4.76-12,12.59-12,6.23,0,9.19,3.18,9.19,9.72v31.29h9.12v-31.99c0-5.55-.89-8.93-3.16-11.9Z"/>
    <path class="cls-2" d="M465.51,194.98c-8.24,0-13.17-5.53-13.86-15.35h34.86c-.1-5.75-.69-9.6-1.89-13.17-3.16-9.22-10.1-14.27-19.61-14.27-13.36,0-22.48,10.2-22.48,25.16s9.31,25.26,22.79,25.26c10.58,0,18.22-5.94,20.5-15.95h-8.72c-2.18,5.65-5.94,8.31-11.59,8.31ZM465.01,159.43c7.23,0,11.59,4.86,12,13.58h-25.26c.48-8.02,5.84-13.58,13.26-13.58Z"/>
    <path class="cls-2" d="M517.44,152.2c-2.87,0-6.32,1.48-8.5,3.76-1.29,1.2-2.08,2.27-3.97,5.05v-7.52h-8.72v47.84h9.12v-25.16c0-8.52,5.65-15.06,12.98-15.06,1.27,0,2.27.1,4.14.5v-8.21c-1.58-.81-3.26-1.2-5.05-1.2Z"/>
  </g>
</svg>